<mxfile host="app.diagrams.net" agent="Mozilla/5.0 (Windows NT 10.0; Win64; x64) AppleWebKit/537.36 (KHTML, like Gecko) Chrome/135.0.0.0 Safari/537.36" version="26.2.9">
  <diagram name="Page-1" id="3zNdNrsEKpjoQYGc_zBc">
    <mxGraphModel dx="788" dy="417" grid="1" gridSize="10" guides="1" tooltips="1" connect="1" arrows="1" fold="1" page="1" pageScale="1" pageWidth="827" pageHeight="1169" math="0" shadow="0">
      <root>
        <mxCell id="0" />
        <mxCell id="1" parent="0" />
        <mxCell id="moyZTGKr0rTBqRhNdf2y-1" value="" style="whiteSpace=wrap;html=1;aspect=fixed;" vertex="1" parent="1">
          <mxGeometry x="230" y="40" width="240" height="240" as="geometry" />
        </mxCell>
        <mxCell id="moyZTGKr0rTBqRhNdf2y-2" value="" style="endArrow=none;html=1;rounded=0;exitX=0;exitY=0.142;exitDx=0;exitDy=0;exitPerimeter=0;" edge="1" parent="1" source="moyZTGKr0rTBqRhNdf2y-1">
          <mxGeometry width="50" height="50" relative="1" as="geometry">
            <mxPoint x="380" y="120" as="sourcePoint" />
            <mxPoint x="470" y="74" as="targetPoint" />
          </mxGeometry>
        </mxCell>
        <mxCell id="moyZTGKr0rTBqRhNdf2y-3" value="Vehicle" style="text;html=1;align=center;verticalAlign=middle;whiteSpace=wrap;rounded=0;fontStyle=1;fontSize=16;" vertex="1" parent="1">
          <mxGeometry x="280" y="29" width="120" height="51" as="geometry" />
        </mxCell>
        <mxCell id="moyZTGKr0rTBqRhNdf2y-4" value="" style="endArrow=none;html=1;rounded=0;exitX=0.009;exitY=0.57;exitDx=0;exitDy=0;exitPerimeter=0;entryX=1;entryY=0.57;entryDx=0;entryDy=0;entryPerimeter=0;" edge="1" parent="1" source="moyZTGKr0rTBqRhNdf2y-1" target="moyZTGKr0rTBqRhNdf2y-1">
          <mxGeometry width="50" height="50" relative="1" as="geometry">
            <mxPoint x="380" y="120" as="sourcePoint" />
            <mxPoint x="430" y="70" as="targetPoint" />
          </mxGeometry>
        </mxCell>
        <mxCell id="moyZTGKr0rTBqRhNdf2y-5" value="&lt;font style=&quot;font-size: 16px;&quot;&gt;+ tyre : Tyre&lt;br&gt;- vehicleId : int&lt;br&gt;# &lt;u&gt;vehicleName: String&lt;/u&gt;&lt;/font&gt;" style="text;html=1;align=left;verticalAlign=middle;whiteSpace=wrap;rounded=0;" vertex="1" parent="1">
          <mxGeometry x="250" y="90" width="180" height="80" as="geometry" />
        </mxCell>
        <mxCell id="moyZTGKr0rTBqRhNdf2y-7" value="&lt;font style=&quot;font-size: 14px;&quot;&gt;+ getVehicleParts() : List&amp;lt;Part&amp;gt;&lt;br&gt;- &lt;u&gt;changeTyre(Tyre tyre): Tyre&lt;/u&gt;&lt;br&gt;#&amp;nbsp;&lt;/font&gt;" style="text;html=1;align=left;verticalAlign=middle;whiteSpace=wrap;rounded=0;" vertex="1" parent="1">
          <mxGeometry x="245" y="180" width="240" height="90" as="geometry" />
        </mxCell>
        <mxCell id="moyZTGKr0rTBqRhNdf2y-8" value="&lt;font style=&quot;&quot; face=&quot;Comic Sans MS&quot;&gt;class name&lt;/font&gt;" style="shape=callout;whiteSpace=wrap;html=1;perimeter=calloutPerimeter;" vertex="1" parent="1">
          <mxGeometry x="300" width="100" height="50" as="geometry" />
        </mxCell>
        <mxCell id="moyZTGKr0rTBqRhNdf2y-9" value="" style="shape=curlyBracket;whiteSpace=wrap;html=1;rounded=1;labelPosition=left;verticalLabelPosition=middle;align=right;verticalAlign=middle;size=0.4444444444444444;" vertex="1" parent="1">
          <mxGeometry x="200" y="105" width="45" height="50" as="geometry" />
        </mxCell>
        <mxCell id="moyZTGKr0rTBqRhNdf2y-10" value="&lt;font style=&quot;&quot; face=&quot;Comic Sans MS&quot;&gt;access specifiers&lt;br&gt;+ public&lt;br&gt;- private&lt;br&gt;# protected&lt;br&gt;&lt;u style=&quot;&quot;&gt;underline &lt;/u&gt;is for static&lt;/font&gt;&lt;div&gt;&lt;br&gt;&lt;/div&gt;" style="text;html=1;align=right;verticalAlign=middle;whiteSpace=wrap;rounded=0;" vertex="1" parent="1">
          <mxGeometry x="50" y="80" width="150" height="110" as="geometry" />
        </mxCell>
        <mxCell id="moyZTGKr0rTBqRhNdf2y-11" value="" style="endArrow=classic;html=1;rounded=0;entryX=0.5;entryY=0.25;entryDx=0;entryDy=0;entryPerimeter=0;" edge="1" parent="1">
          <mxGeometry width="50" height="50" relative="1" as="geometry">
            <mxPoint x="550" y="110" as="sourcePoint" />
            <mxPoint x="340" y="110" as="targetPoint" />
          </mxGeometry>
        </mxCell>
        <mxCell id="moyZTGKr0rTBqRhNdf2y-13" value="&lt;font style=&quot;&quot; face=&quot;Comic Sans MS&quot;&gt;Return Type&lt;/font&gt;" style="text;html=1;align=center;verticalAlign=middle;whiteSpace=wrap;rounded=0;" vertex="1" parent="1">
          <mxGeometry x="520" y="90" width="140" height="45" as="geometry" />
        </mxCell>
        <mxCell id="moyZTGKr0rTBqRhNdf2y-14" value="" style="endArrow=classic;html=1;rounded=0;entryX=0.5;entryY=0.25;entryDx=0;entryDy=0;entryPerimeter=0;" edge="1" parent="1">
          <mxGeometry width="50" height="50" relative="1" as="geometry">
            <mxPoint x="560" y="210" as="sourcePoint" />
            <mxPoint x="440" y="210" as="targetPoint" />
          </mxGeometry>
        </mxCell>
        <mxCell id="moyZTGKr0rTBqRhNdf2y-15" value="&lt;font style=&quot;&quot; face=&quot;Comic Sans MS&quot;&gt;&lt;br&gt;Return Type&lt;/font&gt;" style="text;html=1;align=center;verticalAlign=middle;whiteSpace=wrap;rounded=0;" vertex="1" parent="1">
          <mxGeometry x="530" y="180" width="140" height="45" as="geometry" />
        </mxCell>
        <mxCell id="moyZTGKr0rTBqRhNdf2y-16" value="" style="endArrow=classic;html=1;rounded=0;" edge="1" parent="1">
          <mxGeometry width="50" height="50" relative="1" as="geometry">
            <mxPoint x="160" y="230" as="sourcePoint" />
            <mxPoint x="240" y="230" as="targetPoint" />
          </mxGeometry>
        </mxCell>
        <mxCell id="moyZTGKr0rTBqRhNdf2y-18" value="&lt;span style=&quot;text-align: right;&quot;&gt;&lt;font style=&quot;font-size: 13px;&quot; face=&quot;Comic Sans MS&quot;&gt;&lt;u style=&quot;&quot;&gt;underline&amp;nbsp;&lt;/u&gt;is for static&lt;/font&gt;&lt;/span&gt;" style="text;html=1;align=center;verticalAlign=middle;whiteSpace=wrap;rounded=0;" vertex="1" parent="1">
          <mxGeometry x="20" y="210" width="140" height="30" as="geometry" />
        </mxCell>
        <mxCell id="moyZTGKr0rTBqRhNdf2y-19" value="" style="endArrow=none;html=1;rounded=0;" edge="1" parent="1">
          <mxGeometry width="50" height="50" relative="1" as="geometry">
            <mxPoint x="300" y="470" as="sourcePoint" />
            <mxPoint x="430" y="470" as="targetPoint" />
          </mxGeometry>
        </mxCell>
        <mxCell id="moyZTGKr0rTBqRhNdf2y-22" value="" style="rounded=0;whiteSpace=wrap;html=1;" vertex="1" parent="1">
          <mxGeometry x="180" y="440" width="120" height="60" as="geometry" />
        </mxCell>
        <mxCell id="moyZTGKr0rTBqRhNdf2y-25" value="classA" style="text;html=1;align=center;verticalAlign=middle;whiteSpace=wrap;rounded=0;" vertex="1" parent="1">
          <mxGeometry x="212.5" y="455" width="60" height="30" as="geometry" />
        </mxCell>
        <mxCell id="moyZTGKr0rTBqRhNdf2y-26" value="" style="rounded=0;whiteSpace=wrap;html=1;" vertex="1" parent="1">
          <mxGeometry x="430" y="440" width="120" height="60" as="geometry" />
        </mxCell>
        <mxCell id="moyZTGKr0rTBqRhNdf2y-27" value="classB" style="text;html=1;align=center;verticalAlign=middle;whiteSpace=wrap;rounded=0;" vertex="1" parent="1">
          <mxGeometry x="460" y="455" width="60" height="30" as="geometry" />
        </mxCell>
        <mxCell id="moyZTGKr0rTBqRhNdf2y-30" value="&lt;font face=&quot;Verdana&quot;&gt;&lt;b&gt;association:--&amp;gt;&lt;/b&gt;&lt;/font&gt;" style="text;html=1;align=center;verticalAlign=middle;whiteSpace=wrap;rounded=0;" vertex="1" parent="1">
          <mxGeometry x="110" y="350" width="165" height="30" as="geometry" />
        </mxCell>
        <mxCell id="moyZTGKr0rTBqRhNdf2y-35" value="" style="rounded=0;whiteSpace=wrap;html=1;" vertex="1" parent="1">
          <mxGeometry x="180" y="740" width="120" height="60" as="geometry" />
        </mxCell>
        <mxCell id="moyZTGKr0rTBqRhNdf2y-36" value="classA" style="text;html=1;align=center;verticalAlign=middle;whiteSpace=wrap;rounded=0;" vertex="1" parent="1">
          <mxGeometry x="212.5" y="755" width="60" height="30" as="geometry" />
        </mxCell>
        <mxCell id="moyZTGKr0rTBqRhNdf2y-37" value="" style="rounded=0;whiteSpace=wrap;html=1;" vertex="1" parent="1">
          <mxGeometry x="430" y="740" width="120" height="60" as="geometry" />
        </mxCell>
        <mxCell id="moyZTGKr0rTBqRhNdf2y-38" value="classB" style="text;html=1;align=center;verticalAlign=middle;whiteSpace=wrap;rounded=0;" vertex="1" parent="1">
          <mxGeometry x="460" y="755" width="60" height="30" as="geometry" />
        </mxCell>
        <mxCell id="moyZTGKr0rTBqRhNdf2y-40" value="2)" style="text;html=1;align=center;verticalAlign=middle;whiteSpace=wrap;rounded=0;" vertex="1" parent="1">
          <mxGeometry x="110" y="690" width="60" height="30" as="geometry" />
        </mxCell>
        <mxCell id="moyZTGKr0rTBqRhNdf2y-41" value="" style="endArrow=classic;html=1;rounded=0;exitX=1;exitY=0.5;exitDx=0;exitDy=0;entryX=0;entryY=0.5;entryDx=0;entryDy=0;" edge="1" parent="1" source="moyZTGKr0rTBqRhNdf2y-35" target="moyZTGKr0rTBqRhNdf2y-37">
          <mxGeometry width="50" height="50" relative="1" as="geometry">
            <mxPoint x="380" y="670" as="sourcePoint" />
            <mxPoint x="430" y="620" as="targetPoint" />
          </mxGeometry>
        </mxCell>
        <mxCell id="moyZTGKr0rTBqRhNdf2y-55" value="" style="rounded=0;whiteSpace=wrap;html=1;" vertex="1" parent="1">
          <mxGeometry x="180" y="540" width="120" height="60" as="geometry" />
        </mxCell>
        <mxCell id="moyZTGKr0rTBqRhNdf2y-56" value="classA" style="text;html=1;align=center;verticalAlign=middle;whiteSpace=wrap;rounded=0;" vertex="1" parent="1">
          <mxGeometry x="212.5" y="555" width="60" height="30" as="geometry" />
        </mxCell>
        <mxCell id="moyZTGKr0rTBqRhNdf2y-57" value="" style="rounded=0;whiteSpace=wrap;html=1;" vertex="1" parent="1">
          <mxGeometry x="430" y="540" width="120" height="60" as="geometry" />
        </mxCell>
        <mxCell id="moyZTGKr0rTBqRhNdf2y-58" value="classB" style="text;html=1;align=center;verticalAlign=middle;whiteSpace=wrap;rounded=0;" vertex="1" parent="1">
          <mxGeometry x="460" y="555" width="60" height="30" as="geometry" />
        </mxCell>
        <mxCell id="moyZTGKr0rTBqRhNdf2y-60" value="1)&amp;nbsp;" style="text;html=1;align=center;verticalAlign=middle;whiteSpace=wrap;rounded=0;" vertex="1" parent="1">
          <mxGeometry x="120" y="380" width="60" height="30" as="geometry" />
        </mxCell>
        <mxCell id="moyZTGKr0rTBqRhNdf2y-61" value="&lt;font face=&quot;Comic Sans MS&quot;&gt;&lt;b&gt;Bidirectional:&lt;/b&gt; In this association relatioship classA can call classB and classB can call ClassA&lt;/font&gt;" style="text;html=1;align=center;verticalAlign=middle;whiteSpace=wrap;rounded=0;" vertex="1" parent="1">
          <mxGeometry x="170" y="390" width="260" height="30" as="geometry" />
        </mxCell>
        <mxCell id="moyZTGKr0rTBqRhNdf2y-62" value="OR" style="text;html=1;align=center;verticalAlign=middle;whiteSpace=wrap;rounded=0;" vertex="1" parent="1">
          <mxGeometry x="329" y="500" width="60" height="30" as="geometry" />
        </mxCell>
        <mxCell id="moyZTGKr0rTBqRhNdf2y-63" value="" style="endArrow=classic;startArrow=classic;html=1;rounded=0;entryX=0;entryY=0.5;entryDx=0;entryDy=0;exitX=1;exitY=0.5;exitDx=0;exitDy=0;" edge="1" parent="1" source="moyZTGKr0rTBqRhNdf2y-55" target="moyZTGKr0rTBqRhNdf2y-57">
          <mxGeometry width="50" height="50" relative="1" as="geometry">
            <mxPoint x="60" y="570" as="sourcePoint" />
            <mxPoint x="110" y="520" as="targetPoint" />
          </mxGeometry>
        </mxCell>
        <mxCell id="moyZTGKr0rTBqRhNdf2y-64" value="&lt;font face=&quot;Comic Sans MS&quot;&gt;&lt;b&gt;Unidirectional:&lt;/b&gt; In this association relatioship classA can call classB but classB can NOT call classA&lt;/font&gt;" style="text;html=1;align=center;verticalAlign=middle;whiteSpace=wrap;rounded=0;" vertex="1" parent="1">
          <mxGeometry x="170" y="700" width="260" height="30" as="geometry" />
        </mxCell>
        <mxCell id="moyZTGKr0rTBqRhNdf2y-65" value="&lt;b&gt;&lt;font face=&quot;Comic Sans MS&quot;&gt;Multiplicity:--&amp;gt;&lt;/font&gt;&lt;/b&gt;" style="text;html=1;align=center;verticalAlign=middle;whiteSpace=wrap;rounded=0;" vertex="1" parent="1">
          <mxGeometry x="135" y="860" width="130" height="30" as="geometry" />
        </mxCell>
        <mxCell id="moyZTGKr0rTBqRhNdf2y-66" value="" style="rounded=0;whiteSpace=wrap;html=1;" vertex="1" parent="1">
          <mxGeometry x="195" y="930" width="120" height="60" as="geometry" />
        </mxCell>
        <mxCell id="moyZTGKr0rTBqRhNdf2y-67" value="" style="rounded=0;whiteSpace=wrap;html=1;" vertex="1" parent="1">
          <mxGeometry x="425" y="900" width="120" height="60" as="geometry" />
        </mxCell>
        <mxCell id="moyZTGKr0rTBqRhNdf2y-68" value="" style="rounded=0;whiteSpace=wrap;html=1;" vertex="1" parent="1">
          <mxGeometry x="425" y="1030" width="120" height="60" as="geometry" />
        </mxCell>
        <mxCell id="moyZTGKr0rTBqRhNdf2y-69" value="" style="rounded=0;whiteSpace=wrap;html=1;" vertex="1" parent="1">
          <mxGeometry x="195" y="1180" width="120" height="60" as="geometry" />
        </mxCell>
        <mxCell id="moyZTGKr0rTBqRhNdf2y-70" value="" style="rounded=0;whiteSpace=wrap;html=1;" vertex="1" parent="1">
          <mxGeometry x="425" y="1150" width="120" height="60" as="geometry" />
        </mxCell>
        <mxCell id="moyZTGKr0rTBqRhNdf2y-71" value="" style="rounded=0;whiteSpace=wrap;html=1;" vertex="1" parent="1">
          <mxGeometry x="425" y="1280" width="120" height="60" as="geometry" />
        </mxCell>
        <mxCell id="moyZTGKr0rTBqRhNdf2y-72" value="Person" style="text;html=1;align=center;verticalAlign=middle;whiteSpace=wrap;rounded=0;" vertex="1" parent="1">
          <mxGeometry x="225" y="945" width="60" height="30" as="geometry" />
        </mxCell>
        <mxCell id="moyZTGKr0rTBqRhNdf2y-73" value="Car" style="text;html=1;align=center;verticalAlign=middle;whiteSpace=wrap;rounded=0;" vertex="1" parent="1">
          <mxGeometry x="455" y="915" width="60" height="30" as="geometry" />
        </mxCell>
        <mxCell id="moyZTGKr0rTBqRhNdf2y-74" value="Room" style="text;html=1;align=center;verticalAlign=middle;whiteSpace=wrap;rounded=0;" vertex="1" parent="1">
          <mxGeometry x="455" y="1045" width="60" height="30" as="geometry" />
        </mxCell>
        <mxCell id="moyZTGKr0rTBqRhNdf2y-75" value="Rider" style="text;html=1;align=center;verticalAlign=middle;whiteSpace=wrap;rounded=0;" vertex="1" parent="1">
          <mxGeometry x="225" y="1195" width="60" height="30" as="geometry" />
        </mxCell>
        <mxCell id="moyZTGKr0rTBqRhNdf2y-76" value="Bike" style="text;html=1;align=center;verticalAlign=middle;whiteSpace=wrap;rounded=0;" vertex="1" parent="1">
          <mxGeometry x="455" y="1295" width="60" height="30" as="geometry" />
        </mxCell>
        <mxCell id="moyZTGKr0rTBqRhNdf2y-77" value="Cab" style="text;html=1;align=center;verticalAlign=middle;whiteSpace=wrap;rounded=0;" vertex="1" parent="1">
          <mxGeometry x="455" y="1165" width="60" height="30" as="geometry" />
        </mxCell>
        <mxCell id="moyZTGKr0rTBqRhNdf2y-78" value="" style="endArrow=none;html=1;rounded=0;entryX=0;entryY=0.5;entryDx=0;entryDy=0;exitX=1;exitY=0.5;exitDx=0;exitDy=0;" edge="1" parent="1" source="moyZTGKr0rTBqRhNdf2y-66" target="moyZTGKr0rTBqRhNdf2y-67">
          <mxGeometry width="50" height="50" relative="1" as="geometry">
            <mxPoint x="305" y="1100" as="sourcePoint" />
            <mxPoint x="355" y="1050" as="targetPoint" />
          </mxGeometry>
        </mxCell>
        <mxCell id="moyZTGKr0rTBqRhNdf2y-79" value="" style="endArrow=none;html=1;rounded=0;entryX=0;entryY=0.5;entryDx=0;entryDy=0;exitX=1;exitY=0.5;exitDx=0;exitDy=0;" edge="1" parent="1" source="moyZTGKr0rTBqRhNdf2y-66" target="moyZTGKr0rTBqRhNdf2y-68">
          <mxGeometry width="50" height="50" relative="1" as="geometry">
            <mxPoint x="305" y="1100" as="sourcePoint" />
            <mxPoint x="355" y="1050" as="targetPoint" />
          </mxGeometry>
        </mxCell>
        <mxCell id="moyZTGKr0rTBqRhNdf2y-80" value="" style="endArrow=none;html=1;rounded=0;entryX=0;entryY=0.5;entryDx=0;entryDy=0;exitX=1;exitY=0.5;exitDx=0;exitDy=0;" edge="1" parent="1" source="moyZTGKr0rTBqRhNdf2y-69" target="moyZTGKr0rTBqRhNdf2y-70">
          <mxGeometry width="50" height="50" relative="1" as="geometry">
            <mxPoint x="305" y="1100" as="sourcePoint" />
            <mxPoint x="355" y="1050" as="targetPoint" />
          </mxGeometry>
        </mxCell>
        <mxCell id="moyZTGKr0rTBqRhNdf2y-81" value="" style="endArrow=none;html=1;rounded=0;exitX=0;exitY=0.5;exitDx=0;exitDy=0;entryX=1;entryY=0.5;entryDx=0;entryDy=0;" edge="1" parent="1" source="moyZTGKr0rTBqRhNdf2y-71" target="moyZTGKr0rTBqRhNdf2y-69">
          <mxGeometry width="50" height="50" relative="1" as="geometry">
            <mxPoint x="305" y="1240" as="sourcePoint" />
            <mxPoint x="355" y="1190" as="targetPoint" />
          </mxGeometry>
        </mxCell>
        <mxCell id="moyZTGKr0rTBqRhNdf2y-82" value="1" style="text;html=1;align=center;verticalAlign=middle;whiteSpace=wrap;rounded=0;" vertex="1" parent="1">
          <mxGeometry x="295" y="930" width="60" height="30" as="geometry" />
        </mxCell>
        <mxCell id="moyZTGKr0rTBqRhNdf2y-83" value="1" style="text;html=1;align=center;verticalAlign=middle;whiteSpace=wrap;rounded=0;" vertex="1" parent="1">
          <mxGeometry x="385" y="1020" width="60" height="30" as="geometry" />
        </mxCell>
        <mxCell id="moyZTGKr0rTBqRhNdf2y-84" value="2" style="text;html=1;align=center;verticalAlign=middle;whiteSpace=wrap;rounded=0;" vertex="1" parent="1">
          <mxGeometry x="295" y="970" width="60" height="30" as="geometry" />
        </mxCell>
        <mxCell id="moyZTGKr0rTBqRhNdf2y-85" value="&lt;font style=&quot;font-size: 20px;&quot;&gt;*&lt;/font&gt;" style="text;html=1;align=center;verticalAlign=middle;whiteSpace=wrap;rounded=0;" vertex="1" parent="1">
          <mxGeometry x="385" y="910" width="60" height="30" as="geometry" />
        </mxCell>
        <mxCell id="moyZTGKr0rTBqRhNdf2y-86" value="1...2" style="text;html=1;align=center;verticalAlign=middle;whiteSpace=wrap;rounded=0;" vertex="1" parent="1">
          <mxGeometry x="295" y="1225" width="60" height="30" as="geometry" />
        </mxCell>
        <mxCell id="moyZTGKr0rTBqRhNdf2y-88" value="1...4" style="text;html=1;align=center;verticalAlign=middle;whiteSpace=wrap;rounded=0;" vertex="1" parent="1">
          <mxGeometry x="305" y="1180" width="60" height="30" as="geometry" />
        </mxCell>
        <mxCell id="moyZTGKr0rTBqRhNdf2y-89" value="1" style="text;html=1;align=center;verticalAlign=middle;whiteSpace=wrap;rounded=0;" vertex="1" parent="1">
          <mxGeometry x="385" y="1150" width="60" height="30" as="geometry" />
        </mxCell>
        <mxCell id="moyZTGKr0rTBqRhNdf2y-91" value="1" style="text;html=1;align=center;verticalAlign=middle;whiteSpace=wrap;rounded=0;" vertex="1" parent="1">
          <mxGeometry x="379" y="1295" width="60" height="30" as="geometry" />
        </mxCell>
        <mxCell id="moyZTGKr0rTBqRhNdf2y-94" value="drives" style="text;html=1;align=center;verticalAlign=middle;whiteSpace=wrap;rounded=0;" vertex="1" parent="1">
          <mxGeometry x="335" y="920" width="60" height="30" as="geometry" />
        </mxCell>
        <mxCell id="moyZTGKr0rTBqRhNdf2y-95" value="books" style="text;html=1;align=center;verticalAlign=middle;whiteSpace=wrap;rounded=0;" vertex="1" parent="1">
          <mxGeometry x="325" y="1000" width="60" height="30" as="geometry" />
        </mxCell>
        <mxCell id="moyZTGKr0rTBqRhNdf2y-96" value="drives" style="text;html=1;align=center;verticalAlign=middle;whiteSpace=wrap;rounded=0;" vertex="1" parent="1">
          <mxGeometry x="345" y="1170" width="60" height="30" as="geometry" />
        </mxCell>
        <mxCell id="moyZTGKr0rTBqRhNdf2y-97" value="rides" style="text;html=1;align=center;verticalAlign=middle;whiteSpace=wrap;rounded=0;" vertex="1" parent="1">
          <mxGeometry x="330" y="1250" width="60" height="30" as="geometry" />
        </mxCell>
        <mxCell id="moyZTGKr0rTBqRhNdf2y-98" value="&lt;b&gt;&lt;font style=&quot;font-size: 16px;&quot; face=&quot;Comic Sans MS&quot;&gt;&quot;has - a&quot; :--&amp;gt;&lt;/font&gt;&lt;/b&gt;" style="text;html=1;align=center;verticalAlign=middle;whiteSpace=wrap;rounded=0;" vertex="1" parent="1">
          <mxGeometry x="670" y="390" width="120" height="30" as="geometry" />
        </mxCell>
        <mxCell id="moyZTGKr0rTBqRhNdf2y-99" value="&lt;font face=&quot;Comic Sans MS&quot;&gt;&lt;b&gt;1) Aggregation:--&amp;gt;&amp;nbsp; &lt;/b&gt;Person can exists without House&lt;/font&gt;" style="text;html=1;align=center;verticalAlign=middle;whiteSpace=wrap;rounded=0;" vertex="1" parent="1">
          <mxGeometry x="720" y="440" width="340" height="30" as="geometry" />
        </mxCell>
        <mxCell id="moyZTGKr0rTBqRhNdf2y-100" value="&lt;font face=&quot;Comic Sans MS&quot;&gt;&lt;b&gt;2) Composition:--&amp;gt;&amp;nbsp; &lt;/b&gt;Eye can &lt;b&gt;NOT &lt;/b&gt;exists without Body&lt;/font&gt;" style="text;html=1;align=center;verticalAlign=middle;whiteSpace=wrap;rounded=0;" vertex="1" parent="1">
          <mxGeometry x="730" y="585" width="340" height="30" as="geometry" />
        </mxCell>
        <mxCell id="moyZTGKr0rTBqRhNdf2y-101" value="Body" style="rounded=0;whiteSpace=wrap;html=1;" vertex="1" parent="1">
          <mxGeometry x="780" y="640" width="120" height="60" as="geometry" />
        </mxCell>
        <mxCell id="moyZTGKr0rTBqRhNdf2y-102" value="Eye" style="rounded=0;whiteSpace=wrap;html=1;" vertex="1" parent="1">
          <mxGeometry x="1010" y="640" width="120" height="60" as="geometry" />
        </mxCell>
        <mxCell id="moyZTGKr0rTBqRhNdf2y-103" value="" style="endArrow=diamondThin;endFill=1;endSize=24;html=1;rounded=0;exitX=0;exitY=0.5;exitDx=0;exitDy=0;entryX=1;entryY=0.5;entryDx=0;entryDy=0;" edge="1" parent="1" source="moyZTGKr0rTBqRhNdf2y-102" target="moyZTGKr0rTBqRhNdf2y-101">
          <mxGeometry width="160" relative="1" as="geometry">
            <mxPoint x="800" y="670" as="sourcePoint" />
            <mxPoint x="910" y="669.5" as="targetPoint" />
          </mxGeometry>
        </mxCell>
        <mxCell id="moyZTGKr0rTBqRhNdf2y-107" value="Person" style="rounded=0;whiteSpace=wrap;html=1;" vertex="1" parent="1">
          <mxGeometry x="780" y="495" width="120" height="60" as="geometry" />
        </mxCell>
        <mxCell id="moyZTGKr0rTBqRhNdf2y-108" value="House" style="rounded=0;whiteSpace=wrap;html=1;" vertex="1" parent="1">
          <mxGeometry x="1010" y="495" width="120" height="60" as="geometry" />
        </mxCell>
        <mxCell id="moyZTGKr0rTBqRhNdf2y-109" value="" style="html=1;startArrow=diamondThin;startFill=0;edgeStyle=elbowEdgeStyle;elbow=vertical;startSize=10;endArrow=none;endFill=0;rounded=0;entryX=1;entryY=0.5;entryDx=0;entryDy=0;exitX=0;exitY=0.5;exitDx=0;exitDy=0;" edge="1" parent="1" source="moyZTGKr0rTBqRhNdf2y-108" target="moyZTGKr0rTBqRhNdf2y-107">
          <mxGeometry width="160" relative="1" as="geometry">
            <mxPoint x="990" y="490" as="sourcePoint" />
            <mxPoint x="930" y="350" as="targetPoint" />
          </mxGeometry>
        </mxCell>
        <mxCell id="moyZTGKr0rTBqRhNdf2y-110" value="&lt;font face=&quot;Comic Sans MS&quot;&gt;&lt;b&gt;Note--&amp;gt;&lt;/b&gt; If a class can belongs to multiple instances then it can not be a composition relationship. &lt;br&gt;It can be aggregation relationship.&lt;br&gt;&amp;nbsp;e.g a house can belongs to multiple persons so it can be a aggregation relation and not composition.&lt;/font&gt;" style="text;html=1;align=center;verticalAlign=middle;resizable=0;points=[];autosize=1;strokeColor=none;fillColor=none;" vertex="1" parent="1">
          <mxGeometry x="670" y="740" width="580" height="60" as="geometry" />
        </mxCell>
        <mxCell id="moyZTGKr0rTBqRhNdf2y-112" value="&lt;b&gt;&lt;font face=&quot;Comic Sans MS&quot;&gt;&quot; is a &quot; :--&amp;gt;&lt;/font&gt;&lt;/b&gt;" style="text;html=1;align=center;verticalAlign=middle;whiteSpace=wrap;rounded=0;" vertex="1" parent="1">
          <mxGeometry x="660" y="860" width="80" height="30" as="geometry" />
        </mxCell>
        <mxCell id="moyZTGKr0rTBqRhNdf2y-113" value="This is used to showcase inheritance." style="text;html=1;align=center;verticalAlign=middle;whiteSpace=wrap;rounded=0;" vertex="1" parent="1">
          <mxGeometry x="670" y="885" width="260" height="30" as="geometry" />
        </mxCell>
        <mxCell id="moyZTGKr0rTBqRhNdf2y-115" value="class Living being" style="rounded=0;whiteSpace=wrap;html=1;" vertex="1" parent="1">
          <mxGeometry x="800" y="930" width="120" height="60" as="geometry" />
        </mxCell>
        <mxCell id="moyZTGKr0rTBqRhNdf2y-116" value="class Animal" style="rounded=0;whiteSpace=wrap;html=1;" vertex="1" parent="1">
          <mxGeometry x="680" y="1060" width="120" height="60" as="geometry" />
        </mxCell>
        <mxCell id="moyZTGKr0rTBqRhNdf2y-117" value="class Human" style="rounded=0;whiteSpace=wrap;html=1;" vertex="1" parent="1">
          <mxGeometry x="920" y="1070" width="120" height="60" as="geometry" />
        </mxCell>
        <mxCell id="moyZTGKr0rTBqRhNdf2y-120" value="" style="edgeStyle=none;html=1;endSize=12;endArrow=block;endFill=0;rounded=0;entryX=0.428;entryY=1;entryDx=0;entryDy=0;entryPerimeter=0;exitX=0.5;exitY=0;exitDx=0;exitDy=0;" edge="1" parent="1" source="moyZTGKr0rTBqRhNdf2y-116" target="moyZTGKr0rTBqRhNdf2y-115">
          <mxGeometry width="160" relative="1" as="geometry">
            <mxPoint x="640" y="1000" as="sourcePoint" />
            <mxPoint x="800" y="1000" as="targetPoint" />
          </mxGeometry>
        </mxCell>
        <mxCell id="moyZTGKr0rTBqRhNdf2y-121" value="" style="edgeStyle=none;html=1;endSize=12;endArrow=block;endFill=0;rounded=0;entryX=0.5;entryY=1;entryDx=0;entryDy=0;exitX=0.5;exitY=0;exitDx=0;exitDy=0;" edge="1" parent="1" source="moyZTGKr0rTBqRhNdf2y-117" target="moyZTGKr0rTBqRhNdf2y-115">
          <mxGeometry width="160" relative="1" as="geometry">
            <mxPoint x="640" y="1000" as="sourcePoint" />
            <mxPoint x="800" y="1000" as="targetPoint" />
          </mxGeometry>
        </mxCell>
        <mxCell id="moyZTGKr0rTBqRhNdf2y-122" value="&lt;font face=&quot;Comic Sans MS&quot;&gt;solid line&lt;/font&gt;" style="text;html=1;align=center;verticalAlign=middle;whiteSpace=wrap;rounded=0;" vertex="1" parent="1">
          <mxGeometry x="1030" y="1015" width="60" height="30" as="geometry" />
        </mxCell>
        <mxCell id="moyZTGKr0rTBqRhNdf2y-123" value="" style="endArrow=classic;html=1;rounded=0;exitX=0;exitY=0.5;exitDx=0;exitDy=0;" edge="1" parent="1" source="moyZTGKr0rTBqRhNdf2y-122">
          <mxGeometry width="50" height="50" relative="1" as="geometry">
            <mxPoint x="980" y="1090" as="sourcePoint" />
            <mxPoint x="920" y="1030" as="targetPoint" />
          </mxGeometry>
        </mxCell>
        <mxCell id="moyZTGKr0rTBqRhNdf2y-124" value="&amp;lt;&amp;lt;&lt;i&gt;interface_1&lt;/i&gt;&amp;gt;&amp;gt;" style="rounded=0;whiteSpace=wrap;html=1;" vertex="1" parent="1">
          <mxGeometry x="810" y="1169" width="120" height="60" as="geometry" />
        </mxCell>
        <mxCell id="moyZTGKr0rTBqRhNdf2y-125" value="&amp;lt;&amp;lt;&lt;i&gt;interface_2&lt;/i&gt;&amp;gt;&amp;gt;" style="rounded=0;whiteSpace=wrap;html=1;" vertex="1" parent="1">
          <mxGeometry x="810" y="1325" width="120" height="60" as="geometry" />
        </mxCell>
        <mxCell id="moyZTGKr0rTBqRhNdf2y-129" value="" style="edgeStyle=none;html=1;endSize=12;endArrow=block;endFill=0;rounded=0;entryX=0.5;entryY=1;entryDx=0;entryDy=0;" edge="1" parent="1" target="moyZTGKr0rTBqRhNdf2y-124">
          <mxGeometry width="160" relative="1" as="geometry">
            <mxPoint x="870" y="1250" as="sourcePoint" />
            <mxPoint x="865" y="1240" as="targetPoint" />
          </mxGeometry>
        </mxCell>
        <mxCell id="moyZTGKr0rTBqRhNdf2y-131" value="" style="endArrow=none;dashed=1;html=1;rounded=0;" edge="1" parent="1" target="moyZTGKr0rTBqRhNdf2y-125">
          <mxGeometry width="50" height="50" relative="1" as="geometry">
            <mxPoint x="870" y="1250" as="sourcePoint" />
            <mxPoint x="1030" y="1100" as="targetPoint" />
          </mxGeometry>
        </mxCell>
        <mxCell id="moyZTGKr0rTBqRhNdf2y-134" value="" style="edgeStyle=orthogonalEdgeStyle;rounded=0;orthogonalLoop=1;jettySize=auto;html=1;" edge="1" parent="1" source="moyZTGKr0rTBqRhNdf2y-133" target="moyZTGKr0rTBqRhNdf2y-124">
          <mxGeometry relative="1" as="geometry" />
        </mxCell>
        <mxCell id="moyZTGKr0rTBqRhNdf2y-133" value="&lt;font face=&quot;Comic Sans MS&quot;&gt;&lt;b&gt;Note:--&amp;gt;&lt;/b&gt;To represent its an interface eighter use italic font&amp;nbsp;&lt;/font&gt;&lt;div&gt;&lt;font face=&quot;Comic Sans MS&quot;&gt;or 2 angular brackets around its name&lt;/font&gt;&lt;/div&gt;" style="text;html=1;align=center;verticalAlign=middle;resizable=0;points=[];autosize=1;strokeColor=none;fillColor=none;" vertex="1" parent="1">
          <mxGeometry x="1040" y="1179" width="370" height="40" as="geometry" />
        </mxCell>
        <mxCell id="moyZTGKr0rTBqRhNdf2y-135" value="&lt;font face=&quot;Comic Sans MS&quot;&gt;&lt;b&gt;Note:--&amp;gt;&lt;/b&gt;Inheritance from interface is&amp;nbsp;&lt;/font&gt;&lt;div&gt;&lt;font face=&quot;Comic Sans MS&quot;&gt;denotated using dotted lines.&lt;/font&gt;&lt;/div&gt;" style="text;html=1;align=center;verticalAlign=middle;resizable=0;points=[];autosize=1;strokeColor=none;fillColor=none;" vertex="1" parent="1">
          <mxGeometry x="870" y="1260" width="250" height="40" as="geometry" />
        </mxCell>
        <mxCell id="moyZTGKr0rTBqRhNdf2y-136" value="&lt;i&gt;&lt;font face=&quot;Comic Sans MS&quot;&gt;Example 1&lt;/font&gt;&lt;/i&gt;" style="text;html=1;align=center;verticalAlign=middle;resizable=0;points=[];autosize=1;strokeColor=none;fillColor=none;" vertex="1" parent="1">
          <mxGeometry x="820" y="1130" width="80" height="30" as="geometry" />
        </mxCell>
        <mxCell id="moyZTGKr0rTBqRhNdf2y-137" value="&lt;i&gt;&lt;font face=&quot;Comic Sans MS&quot;&gt;Example 2&lt;/font&gt;&lt;/i&gt;" style="text;html=1;align=center;verticalAlign=middle;resizable=0;points=[];autosize=1;strokeColor=none;fillColor=none;" vertex="1" parent="1">
          <mxGeometry x="827" y="1420" width="80" height="30" as="geometry" />
        </mxCell>
      </root>
    </mxGraphModel>
  </diagram>
</mxfile>
